<svg xmlns="http://www.w3.org/2000/svg" xmlns:xlink="http://www.w3.org/1999/xlink" contentStyleType="text/css" data-diagram-type="ACTIVITY" height="1919px" preserveAspectRatio="none" style="width:1364px;height:1919px;background:#1B1B1B;" version="1.1" viewBox="0 0 1364 1919" width="1364px" zoomAndPan="magnify"><?plantuml 1.2026.3beta6?><defs/><g><rect fill="#1B1B1B" height="1919" style="stroke:none;stroke-width:1;" width="1364" x="0" y="0"/><rect fill="none" height="20.9531" style="stroke:none;stroke-width:1;" width="1317.4067" x="20" y="17.7451"/><path d="M173.5488,43.6982 L173.5488,52.2646 L153.5488,56.2646 L173.5488,60.2646 L173.5488,68.8311 A0,0 0 0 0 173.5488,68.8311 L377.8247,68.8311 A0,0 0 0 0 377.8247,68.8311 L377.8247,53.6982 L367.8247,43.6982 L173.5488,43.6982 A0,0 0 0 0 173.5488,43.6982" fill="#714137" style="stroke:#E7E7E7;stroke-width:0.5;"/><path d="M367.8247,43.6982 L367.8247,53.6982 L377.8247,53.6982 L367.8247,43.6982" fill="#714137" style="stroke:#E7E7E7;stroke-width:0.5;"/><text fill="#FFFFFF" font-family="sans-serif" font-size="13" font-weight="700" lengthAdjust="spacing" textLength="183.2759" x="179.5488" y="60.7651">FASE 1: CONFIGURACIÓN</text><ellipse cx="143.5488" cy="56.2646" fill="#DDDDDD" rx="10" ry="10" style="stroke:#DDDDDD;stroke-width:1;"/><rect fill="#313139" height="33.9688" rx="12.5" ry="12.5" style="stroke:#E7E7E7;stroke-width:0.5;" width="194.9609" x="46.0684" y="88.8311"/><text fill="#FFFFFF" font-family="sans-serif" font-size="12" lengthAdjust="spacing" textLength="54.8496" x="56.0684" y="109.9697">Registrar</text><text fill="#FFFFFF" font-family="sans-serif" font-size="12" font-weight="700" lengthAdjust="spacing" textLength="58.9453" x="114.7324" y="109.9697">Usuarios</text><text fill="#FFFFFF" font-family="sans-serif" font-size="12" lengthAdjust="spacing" textLength="53.5371" x="177.4922" y="109.9697">de RRHH</text><rect fill="#313139" height="33.9688" rx="12.5" ry="12.5" style="stroke:#E7E7E7;stroke-width:0.5;" width="216.2363" x="35.4307" y="142.7998"/><text fill="#FFFFFF" font-family="sans-serif" font-size="12" lengthAdjust="spacing" textLength="54.8496" x="45.4307" y="163.9385">Registrar</text><text fill="#FFFFFF" font-family="sans-serif" font-size="12" font-weight="700" lengthAdjust="spacing" textLength="137.5723" x="104.0947" y="163.9385">Sociedades Internas</text><rect fill="#313139" height="33.9688" rx="12.5" ry="12.5" style="stroke:#E7E7E7;stroke-width:0.5;" width="170.4688" x="58.3145" y="196.7686"/><text fill="#FFFFFF" font-family="sans-serif" font-size="12" lengthAdjust="spacing" textLength="150.4688" x="68.3145" y="217.9072">Analiza previsión del año</text><rect fill="#313139" height="33.9688" rx="12.5" ry="12.5" style="stroke:#E7E7E7;stroke-width:0.5;" width="235.0977" x="26" y="250.7373"/><text fill="#FFFFFF" font-family="sans-serif" font-size="12" lengthAdjust="spacing" textLength="215.0977" x="36" y="271.876">Crear PARTIDA (Presupuesto inicial)</text><line style="stroke:#FFFFFF;stroke-width:1.5;" x1="20" x2="20" y1="17.7451" y2="1898.7651"/><rect fill="#313139" height="33.9688" rx="12.5" ry="12.5" style="stroke:#E7E7E7;stroke-width:0.5;" width="173.0059" x="431.1938" y="304.7061"/><text fill="#FFFFFF" font-family="sans-serif" font-size="12" lengthAdjust="spacing" textLength="153.0059" x="441.1938" y="325.8447">Guardar Partida en BBDD</text><rect fill="#313139" height="47.9375" rx="12.5" ry="12.5" style="stroke:#E7E7E7;stroke-width:0.5;" width="257.7441" x="388.8247" y="699.5933"/><text fill="#FFFFFF" font-family="sans-serif" font-size="12" lengthAdjust="spacing" textLength="153.8965" x="398.8247" y="720.7319">Calcular saldo disponible:</text><text fill="#FFFFFF" font-family="sans-serif" font-size="12" lengthAdjust="spacing" textLength="237.7441" x="398.8247" y="734.7007">Importe Partida - Suma(Gastos Previos)</text><rect fill="#8B0000" height="47.9375" rx="12.5" ry="12.5" style="stroke:#E7E7E7;stroke-width:0.5;" width="148.6309" x="443.3813" y="815.9331"/><text fill="#FFFFFF" font-family="sans-serif" font-size="12" lengthAdjust="spacing" textLength="123.9082" x="453.3813" y="837.0718">Mostrar aviso visual:</text><text fill="#FFFFFF" font-family="sans-serif" font-size="12" lengthAdjust="spacing" textLength="128.6309" x="453.3813" y="851.0405">"Partida en negativo"</text><polygon fill="#313139" points="452.0217,767.5308,583.3718,767.5308,595.3718,779.5308,583.3718,791.5308,452.0217,791.5308,440.0217,779.5308,452.0217,767.5308" style="stroke:#E7E7E7;stroke-width:0.5;"/><text fill="#FFFFFF" font-family="sans-serif" font-size="11" lengthAdjust="spacing" textLength="10.0386" x="521.6968" y="801.7412">Sí</text><text fill="#FFFFFF" font-family="sans-serif" font-size="11" lengthAdjust="spacing" textLength="131.3501" x="452.0217" y="783.3389">Importe Gasto &gt; Saldo?</text><text fill="#FFFFFF" font-family="sans-serif" font-size="11" lengthAdjust="spacing" textLength="14.9585" x="595.3718" y="776.9365">No</text><polygon fill="#313139" points="517.6968,883.8706,529.6968,895.8706,517.6968,907.8706,505.6968,895.8706,517.6968,883.8706" style="stroke:#E7E7E7;stroke-width:0.5;"/><rect fill="#313139" height="33.9688" rx="12.5" ry="12.5" style="stroke:#E7E7E7;stroke-width:0.5;" width="165.4238" x="434.9849" y="927.8706"/><text fill="#FFFFFF" font-family="sans-serif" font-size="12" lengthAdjust="spacing" textLength="145.4238" x="444.9849" y="949.0093">Guardar Gasto en BBDD</text><rect fill="#1B4F72" height="47.9375" rx="12.5" ry="12.5" style="stroke:#E7E7E7;stroke-width:0.5;" width="152.5215" x="441.436" y="981.8394"/><text fill="#FFFFFF" font-family="sans-serif" font-size="12" lengthAdjust="spacing" textLength="132.5215" x="451.436" y="1002.978">Asignar estado inicial:</text><text fill="#FFFFFF" font-family="sans-serif" font-size="12" font-weight="700" lengthAdjust="spacing" textLength="106.9805" x="451.436" y="1016.9468">'Comprometido'</text><rect fill="#1B4F72" height="47.9375" rx="12.5" ry="12.5" style="stroke:#E7E7E7;stroke-width:0.5;" width="130.3379" x="452.5278" y="1171.6831"/><text fill="#FFFFFF" font-family="sans-serif" font-size="12" lengthAdjust="spacing" textLength="110.3379" x="462.5278" y="1192.8218">Cambiar estado a:</text><text fill="#FFFFFF" font-family="sans-serif" font-size="12" font-weight="700" lengthAdjust="spacing" textLength="82.0781" x="462.5278" y="1206.7905">'Consumido'</text><path d="M663.6948,1626.6558 L663.6948,1642.7886 L643.6948,1646.7886 L663.6948,1650.7886 L663.6948,1666.9214 A0,0 0 0 0 663.6948,1666.9214 L879.3521,1666.9214 A0,0 0 0 0 879.3521,1666.9214 L879.3521,1636.6558 L869.3521,1626.6558 L663.6948,1626.6558 A0,0 0 0 0 663.6948,1626.6558" fill="#714137" style="stroke:#E7E7E7;stroke-width:0.5;"/><path d="M869.3521,1626.6558 L869.3521,1636.6558 L879.3521,1636.6558 L869.3521,1626.6558" fill="#714137" style="stroke:#E7E7E7;stroke-width:0.5;"/><text fill="#FFFFFF" font-family="sans-serif" font-size="13" lengthAdjust="spacing" textLength="190.5249" x="669.6948" y="1643.7227">El sistema mantiene el Gasto</text><text fill="#FFFFFF" font-family="sans-serif" font-size="13" lengthAdjust="spacing" textLength="64.4097" x="669.6948" y="1658.8555">en estado</text><text fill="#FFFFFF" font-family="sans-serif" font-size="13" font-weight="700" lengthAdjust="spacing" textLength="88.918" x="738.2368" y="1658.8555">'Consumido'</text><rect fill="#313139" height="33.9688" rx="12.5" ry="12.5" style="stroke:#E7E7E7;stroke-width:0.5;" width="251.9961" x="391.6987" y="1629.8042"/><text fill="#FFFFFF" font-family="sans-serif" font-size="12" lengthAdjust="spacing" textLength="231.9961" x="401.6987" y="1650.9429">Guardar registro en tabla IMPUTACION</text><line style="stroke:#FFFFFF;stroke-width:1.5;" x1="382.8247" x2="382.8247" y1="17.7451" y2="1898.7651"/><path d="M1136.2417,309.124 L1136.2417,317.6904 L1116.2417,321.6904 L1136.2417,325.6904 L1136.2417,334.2568 A0,0 0 0 0 1136.2417,334.2568 L1296.7251,334.2568 A0,0 0 0 0 1296.7251,334.2568 L1296.7251,319.124 L1286.7251,309.124 L1136.2417,309.124 A0,0 0 0 0 1136.2417,309.124" fill="#714137" style="stroke:#E7E7E7;stroke-width:0.5;"/><path d="M1286.7251,309.124 L1286.7251,319.124 L1296.7251,319.124 L1286.7251,309.124" fill="#714137" style="stroke:#E7E7E7;stroke-width:0.5;"/><text fill="#FFFFFF" font-family="sans-serif" font-size="13" font-weight="700" lengthAdjust="spacing" textLength="139.4834" x="1142.2417" y="326.1909">FASE 2: EJECUCIÓN</text><rect fill="#313139" height="47.9375" rx="12.5" ry="12.5" style="stroke:#E7E7E7;stroke-width:0.5;" width="228.6348" x="915.4214" y="358.6748"/><text fill="#FFFFFF" font-family="sans-serif" font-size="12" lengthAdjust="spacing" textLength="208.6348" x="925.4214" y="379.8135">Identificar necesidad de formación</text><text fill="#FFFFFF" font-family="sans-serif" font-size="12" lengthAdjust="spacing" textLength="119.3965" x="925.4214" y="393.7822">o servicio requerido</text><rect fill="#313139" height="33.9688" rx="12.5" ry="12.5" style="stroke:#E7E7E7;stroke-width:0.5;" width="214.9824" x="922.2476" y="479.7183"/><text fill="#FFFFFF" font-family="sans-serif" font-size="12" lengthAdjust="spacing" textLength="73.8457" x="932.2476" y="500.8569">Crear nueva</text><text fill="#FFFFFF" font-family="sans-serif" font-size="12" font-weight="700" lengthAdjust="spacing" textLength="117.3223" x="1009.9077" y="500.8569">Acción Formativa</text><polygon fill="#313139" points="937.2271,431.3159,1122.2505,431.3159,1134.2505,443.3159,1122.2505,455.3159,937.2271,455.3159,925.2271,443.3159,937.2271,431.3159" style="stroke:#E7E7E7;stroke-width:0.5;"/><text fill="#FFFFFF" font-family="sans-serif" font-size="11" lengthAdjust="spacing" textLength="10.0386" x="1033.7388" y="465.5264">Sí</text><text fill="#FFFFFF" font-family="sans-serif" font-size="11" lengthAdjust="spacing" textLength="185.0234" x="937.2271" y="447.124">¿Es una Acción Formativa nueva?</text><text fill="#FFFFFF" font-family="sans-serif" font-size="11" lengthAdjust="spacing" textLength="82.0703" x="1134.2505" y="427.917">No, ya existe o</text><text fill="#FFFFFF" font-family="sans-serif" font-size="11" lengthAdjust="spacing" textLength="49.8223" x="1134.2505" y="440.7217">no aplica</text><polygon fill="#313139" points="1029.7388,533.687,1041.7388,545.687,1029.7388,557.687,1017.7388,545.687,1029.7388,533.687" style="stroke:#E7E7E7;stroke-width:0.5;"/><rect fill="#313139" height="33.9688" rx="12.5" ry="12.5" style="stroke:#E7E7E7;stroke-width:0.5;" width="254.7617" x="902.3579" y="577.687"/><text fill="#FFFFFF" font-family="sans-serif" font-size="12" lengthAdjust="spacing" textLength="234.7617" x="912.3579" y="598.8257">Asociar obligatoriamente a una Partida</text><rect fill="#313139" height="47.9375" rx="12.5" ry="12.5" style="stroke:#E7E7E7;stroke-width:0.5;" width="211.7305" x="923.8735" y="631.6558"/><text fill="#FFFFFF" font-family="sans-serif" font-size="12" lengthAdjust="spacing" textLength="191.7305" x="933.8735" y="652.7944">Desglosar concepto e introducir</text><text fill="#FFFFFF" font-family="sans-serif" font-size="12" lengthAdjust="spacing" textLength="160.4004" x="933.8735" y="666.7632">importe previsto del Gasto</text><rect fill="#313139" height="47.9375" rx="12.5" ry="12.5" style="stroke:#E7E7E7;stroke-width:0.5;" width="164.5684" x="947.4546" y="1049.7769"/><text fill="#FFFFFF" font-family="sans-serif" font-size="12" lengthAdjust="spacing" textLength="144.5684" x="957.4546" y="1070.9155">Se imparte la formación</text><text fill="#FFFFFF" font-family="sans-serif" font-size="12" lengthAdjust="spacing" textLength="130.4766" x="957.4546" y="1084.8843">o se recibe el servicio</text><rect fill="#313139" height="33.9688" rx="12.5" ry="12.5" style="stroke:#E7E7E7;stroke-width:0.5;" width="206.0117" x="926.7329" y="1117.7144"/><text fill="#FFFFFF" font-family="sans-serif" font-size="12" lengthAdjust="spacing" textLength="186.0117" x="936.7329" y="1138.853">Actualizar Gasto manualmente</text><path d="M1114.9077,1183.0854 L1114.9077,1191.6519 L1094.9077,1195.6519 L1114.9077,1199.6519 L1114.9077,1208.2183 A0,0 0 0 0 1114.9077,1208.2183 L1330.5459,1208.2183 A0,0 0 0 0 1330.5459,1208.2183 L1330.5459,1193.0854 L1320.5459,1183.0854 L1114.9077,1183.0854 A0,0 0 0 0 1114.9077,1183.0854" fill="#714137" style="stroke:#E7E7E7;stroke-width:0.5;"/><path d="M1320.5459,1183.0854 L1320.5459,1193.0854 L1330.5459,1193.0854 L1320.5459,1183.0854" fill="#714137" style="stroke:#E7E7E7;stroke-width:0.5;"/><text fill="#FFFFFF" font-family="sans-serif" font-size="13" font-weight="700" lengthAdjust="spacing" textLength="194.6382" x="1120.9077" y="1200.1523">FASE 3: CIERRE CONTABLE</text><rect fill="#313139" height="33.9688" rx="12.5" ry="12.5" style="stroke:#E7E7E7;stroke-width:0.5;" width="237.752" x="910.8628" y="1239.6206"/><text fill="#FFFFFF" font-family="sans-serif" font-size="12" lengthAdjust="spacing" textLength="217.752" x="920.8628" y="1260.7593">Recibir Factura oficial del proveedor</text><rect fill="#313139" height="47.9375" rx="12.5" ry="12.5" style="stroke:#E7E7E7;stroke-width:0.5;" width="181.0566" x="939.2104" y="1341.9917"/><text fill="#FFFFFF" font-family="sans-serif" font-size="12" lengthAdjust="spacing" textLength="95.7129" x="949.2104" y="1363.1304">Registrar nueva</text><text fill="#FFFFFF" font-family="sans-serif" font-size="12" font-weight="700" lengthAdjust="spacing" textLength="61.5293" x="1048.7378" y="1363.1304">Sociedad</text><text fill="#FFFFFF" font-family="sans-serif" font-size="12" lengthAdjust="spacing" textLength="118.2598" x="949.2104" y="1377.0991">(Tipo: PROVEEDOR)</text><polygon fill="#313139" points="960.2852,1293.5894,1099.1924,1293.5894,1111.1924,1305.5894,1099.1924,1317.5894,960.2852,1317.5894,948.2852,1305.5894,960.2852,1293.5894" style="stroke:#E7E7E7;stroke-width:0.5;"/><text fill="#FFFFFF" font-family="sans-serif" font-size="11" lengthAdjust="spacing" textLength="10.0386" x="1033.7388" y="1327.7998">Sí</text><text fill="#FFFFFF" font-family="sans-serif" font-size="11" lengthAdjust="spacing" textLength="138.9072" x="960.2852" y="1309.3975">¿Es un Proveedor nuevo?</text><text fill="#FFFFFF" font-family="sans-serif" font-size="11" lengthAdjust="spacing" textLength="14.9585" x="1111.1924" y="1302.9951">No</text><polygon fill="#313139" points="1029.7388,1409.9292,1041.7388,1421.9292,1029.7388,1433.9292,1017.7388,1421.9292,1029.7388,1409.9292" style="stroke:#E7E7E7;stroke-width:0.5;"/><rect fill="#313139" height="33.9688" rx="12.5" ry="12.5" style="stroke:#E7E7E7;stroke-width:0.5;" width="184.6777" x="937.3999" y="1453.9292"/><text fill="#FFFFFF" font-family="sans-serif" font-size="12" lengthAdjust="spacing" textLength="164.6777" x="947.3999" y="1475.0679">Registrar Factura en la App</text><rect fill="#313139" height="33.9688" rx="12.5" ry="12.5" style="stroke:#E7E7E7;stroke-width:0.5;" width="180.8223" x="939.3276" y="1507.8979"/><text fill="#FFFFFF" font-family="sans-serif" font-size="12" lengthAdjust="spacing" textLength="32.9824" x="949.3276" y="1529.0366">Crear</text><text fill="#FFFFFF" font-family="sans-serif" font-size="12" font-weight="700" lengthAdjust="spacing" textLength="75.9492" x="986.1245" y="1529.0366">Imputación</text><text fill="#FFFFFF" font-family="sans-serif" font-size="12" lengthAdjust="spacing" textLength="44.2617" x="1065.8882" y="1529.0366">(Cruce)</text><rect fill="#313139" height="47.9375" rx="12.5" ry="12.5" style="stroke:#E7E7E7;stroke-width:0.5;" width="222.4473" x="918.5151" y="1561.8667"/><text fill="#FFFFFF" font-family="sans-serif" font-size="12" lengthAdjust="spacing" textLength="202.4473" x="928.5151" y="1583.0054">Asignar qué importe de la factura</text><text fill="#FFFFFF" font-family="sans-serif" font-size="12" lengthAdjust="spacing" textLength="151.3594" x="928.5151" y="1596.9741">corresponde a qué Gasto</text><rect fill="#313139" height="47.9375" rx="12.5" ry="12.5" style="stroke:#E7E7E7;stroke-width:0.5;" width="191.3633" x="934.0571" y="1686.9214"/><text fill="#FFFFFF" font-family="sans-serif" font-size="12" lengthAdjust="spacing" textLength="158.9648" x="944.0571" y="1708.0601">Verificar el cierre contable</text><text fill="#FFFFFF" font-family="sans-serif" font-size="12" lengthAdjust="spacing" textLength="171.3633" x="944.0571" y="1722.0288">del departamento financiero</text><rect fill="#313139" height="33.9688" rx="12.5" ry="12.5" style="stroke:#E7E7E7;stroke-width:0.5;" width="245.5391" x="906.9692" y="1754.8589"/><text fill="#FFFFFF" font-family="sans-serif" font-size="12" lengthAdjust="spacing" textLength="225.5391" x="916.9692" y="1775.9976">Confirmar que la factura está pagada</text><rect fill="#196F3D" height="47.9375" rx="12.5" ry="12.5" style="stroke:#E7E7E7;stroke-width:0.5;" width="278.7734" x="890.3521" y="1808.8276"/><text fill="#FFFFFF" font-family="sans-serif" font-size="12" lengthAdjust="spacing" textLength="258.7734" x="900.3521" y="1829.9663">Cambiar estado del Gasto manualmente a:</text><text fill="#FFFFFF" font-family="sans-serif" font-size="12" font-weight="700" lengthAdjust="spacing" textLength="99.6211" x="900.3521" y="1843.9351">'Contabilizado'</text><ellipse cx="1029.7388" cy="1887.7651" fill="none" rx="11" ry="11" style="stroke:#DDDDDD;stroke-width:1;"/><ellipse cx="1029.7388" cy="1887.7651" fill="#DDDDDD" rx="6" ry="6" style="stroke:#DDDDDD;stroke-width:1;"/><line style="stroke:#FFFFFF;stroke-width:1.5;" x1="884.3521" x2="884.3521" y1="17.7451" y2="1898.7651"/><line style="stroke:#FFFFFF;stroke-width:1.5;" x1="1335.5459" x2="1335.5459" y1="17.7451" y2="1898.7651"/><line style="stroke:#E7E7E7;stroke-width:1;" x1="143.5488" x2="143.5488" y1="66.2646" y2="88.8311"/><polygon fill="#E7E7E7" points="139.5488,78.8311,143.5488,88.8311,147.5488,78.8311,143.5488,82.8311" style="stroke:#E7E7E7;stroke-width:1;"/><line style="stroke:#E7E7E7;stroke-width:1;" x1="143.5488" x2="143.5488" y1="122.7998" y2="142.7998"/><polygon fill="#E7E7E7" points="139.5488,132.7998,143.5488,142.7998,147.5488,132.7998,143.5488,136.7998" style="stroke:#E7E7E7;stroke-width:1;"/><line style="stroke:#E7E7E7;stroke-width:1;" x1="143.5488" x2="143.5488" y1="176.7686" y2="196.7686"/><polygon fill="#E7E7E7" points="139.5488,186.7686,143.5488,196.7686,147.5488,186.7686,143.5488,190.7686" style="stroke:#E7E7E7;stroke-width:1;"/><line style="stroke:#E7E7E7;stroke-width:1;" x1="143.5488" x2="143.5488" y1="230.7373" y2="250.7373"/><polygon fill="#E7E7E7" points="139.5488,240.7373,143.5488,250.7373,147.5488,240.7373,143.5488,244.7373" style="stroke:#E7E7E7;stroke-width:1;"/><line style="stroke:#E7E7E7;stroke-width:1;" x1="517.6968" x2="517.6968" y1="791.5308" y2="815.9331"/><polygon fill="#E7E7E7" points="513.6968,805.9331,517.6968,815.9331,521.6968,805.9331,517.6968,809.9331" style="stroke:#E7E7E7;stroke-width:1;"/><line style="stroke:#E7E7E7;stroke-width:1;" x1="595.3718" x2="607.3718" y1="779.5308" y2="779.5308"/><polygon fill="#E7E7E7" points="603.3718,829.9019,607.3718,839.9019,611.3718,829.9019,607.3718,833.9019" style="stroke:#E7E7E7;stroke-width:1;"/><line style="stroke:#E7E7E7;stroke-width:1;" x1="607.3718" x2="607.3718" y1="779.5308" y2="895.8706"/><line style="stroke:#E7E7E7;stroke-width:1;" x1="607.3718" x2="529.6968" y1="895.8706" y2="895.8706"/><polygon fill="#E7E7E7" points="539.6968,891.8706,529.6968,895.8706,539.6968,899.8706,535.6968,895.8706" style="stroke:#E7E7E7;stroke-width:1;"/><line style="stroke:#E7E7E7;stroke-width:1;" x1="517.6968" x2="517.6968" y1="863.8706" y2="883.8706"/><polygon fill="#E7E7E7" points="513.6968,873.8706,517.6968,883.8706,521.6968,873.8706,517.6968,877.8706" style="stroke:#E7E7E7;stroke-width:1;"/><line style="stroke:#E7E7E7;stroke-width:1;" x1="517.6968" x2="517.6968" y1="747.5308" y2="767.5308"/><polygon fill="#E7E7E7" points="513.6968,757.5308,517.6968,767.5308,521.6968,757.5308,517.6968,761.5308" style="stroke:#E7E7E7;stroke-width:1;"/><line style="stroke:#E7E7E7;stroke-width:1;" x1="517.6968" x2="517.6968" y1="907.8706" y2="927.8706"/><polygon fill="#E7E7E7" points="513.6968,917.8706,517.6968,927.8706,521.6968,917.8706,517.6968,921.8706" style="stroke:#E7E7E7;stroke-width:1;"/><line style="stroke:#E7E7E7;stroke-width:1;" x1="517.6968" x2="517.6968" y1="961.8394" y2="981.8394"/><polygon fill="#E7E7E7" points="513.6968,971.8394,517.6968,981.8394,521.6968,971.8394,517.6968,975.8394" style="stroke:#E7E7E7;stroke-width:1;"/><line style="stroke:#E7E7E7;stroke-width:1;" x1="1029.7388" x2="1029.7388" y1="455.3159" y2="479.7183"/><polygon fill="#E7E7E7" points="1025.7388,469.7183,1029.7388,479.7183,1033.7388,469.7183,1029.7388,473.7183" style="stroke:#E7E7E7;stroke-width:1;"/><line style="stroke:#E7E7E7;stroke-width:1;" x1="1134.2505" x2="1147.23" y1="443.3159" y2="443.3159"/><polygon fill="#E7E7E7" points="1143.23,486.7026,1147.23,496.7026,1151.23,486.7026,1147.23,490.7026" style="stroke:#E7E7E7;stroke-width:1;"/><line style="stroke:#E7E7E7;stroke-width:1;" x1="1147.23" x2="1147.23" y1="443.3159" y2="545.687"/><line style="stroke:#E7E7E7;stroke-width:1;" x1="1147.23" x2="1041.7388" y1="545.687" y2="545.687"/><polygon fill="#E7E7E7" points="1051.7388,541.687,1041.7388,545.687,1051.7388,549.687,1047.7388,545.687" style="stroke:#E7E7E7;stroke-width:1;"/><line style="stroke:#E7E7E7;stroke-width:1;" x1="1029.7388" x2="1029.7388" y1="513.687" y2="533.687"/><polygon fill="#E7E7E7" points="1025.7388,523.687,1029.7388,533.687,1033.7388,523.687,1029.7388,527.687" style="stroke:#E7E7E7;stroke-width:1;"/><line style="stroke:#E7E7E7;stroke-width:1;" x1="1029.7388" x2="1029.7388" y1="406.6123" y2="431.3159"/><polygon fill="#E7E7E7" points="1025.7388,421.3159,1029.7388,431.3159,1033.7388,421.3159,1029.7388,425.3159" style="stroke:#E7E7E7;stroke-width:1;"/><line style="stroke:#E7E7E7;stroke-width:1;" x1="1029.7388" x2="1029.7388" y1="557.687" y2="577.687"/><polygon fill="#E7E7E7" points="1025.7388,567.687,1029.7388,577.687,1033.7388,567.687,1029.7388,571.687" style="stroke:#E7E7E7;stroke-width:1;"/><line style="stroke:#E7E7E7;stroke-width:1;" x1="1029.7388" x2="1029.7388" y1="611.6558" y2="631.6558"/><polygon fill="#E7E7E7" points="1025.7388,621.6558,1029.7388,631.6558,1033.7388,621.6558,1029.7388,625.6558" style="stroke:#E7E7E7;stroke-width:1;"/><line style="stroke:#E7E7E7;stroke-width:1;" x1="1029.7388" x2="1029.7388" y1="1097.7144" y2="1117.7144"/><polygon fill="#E7E7E7" points="1025.7388,1107.7144,1029.7388,1117.7144,1033.7388,1107.7144,1029.7388,1111.7144" style="stroke:#E7E7E7;stroke-width:1;"/><line style="stroke:#E7E7E7;stroke-width:1;" x1="1029.7388" x2="1029.7388" y1="1317.5894" y2="1341.9917"/><polygon fill="#E7E7E7" points="1025.7388,1331.9917,1029.7388,1341.9917,1033.7388,1331.9917,1029.7388,1335.9917" style="stroke:#E7E7E7;stroke-width:1;"/><line style="stroke:#E7E7E7;stroke-width:1;" x1="1111.1924" x2="1130.2671" y1="1305.5894" y2="1305.5894"/><polygon fill="#E7E7E7" points="1126.2671,1355.9604,1130.2671,1365.9604,1134.2671,1355.9604,1130.2671,1359.9604" style="stroke:#E7E7E7;stroke-width:1;"/><line style="stroke:#E7E7E7;stroke-width:1;" x1="1130.2671" x2="1130.2671" y1="1305.5894" y2="1421.9292"/><line style="stroke:#E7E7E7;stroke-width:1;" x1="1130.2671" x2="1041.7388" y1="1421.9292" y2="1421.9292"/><polygon fill="#E7E7E7" points="1051.7388,1417.9292,1041.7388,1421.9292,1051.7388,1425.9292,1047.7388,1421.9292" style="stroke:#E7E7E7;stroke-width:1;"/><line style="stroke:#E7E7E7;stroke-width:1;" x1="1029.7388" x2="1029.7388" y1="1389.9292" y2="1409.9292"/><polygon fill="#E7E7E7" points="1025.7388,1399.9292,1029.7388,1409.9292,1033.7388,1399.9292,1029.7388,1403.9292" style="stroke:#E7E7E7;stroke-width:1;"/><line style="stroke:#E7E7E7;stroke-width:1;" x1="1029.7388" x2="1029.7388" y1="1273.5894" y2="1293.5894"/><polygon fill="#E7E7E7" points="1025.7388,1283.5894,1029.7388,1293.5894,1033.7388,1283.5894,1029.7388,1287.5894" style="stroke:#E7E7E7;stroke-width:1;"/><line style="stroke:#E7E7E7;stroke-width:1;" x1="1029.7388" x2="1029.7388" y1="1433.9292" y2="1453.9292"/><polygon fill="#E7E7E7" points="1025.7388,1443.9292,1029.7388,1453.9292,1033.7388,1443.9292,1029.7388,1447.9292" style="stroke:#E7E7E7;stroke-width:1;"/><line style="stroke:#E7E7E7;stroke-width:1;" x1="1029.7388" x2="1029.7388" y1="1487.8979" y2="1507.8979"/><polygon fill="#E7E7E7" points="1025.7388,1497.8979,1029.7388,1507.8979,1033.7388,1497.8979,1029.7388,1501.8979" style="stroke:#E7E7E7;stroke-width:1;"/><line style="stroke:#E7E7E7;stroke-width:1;" x1="1029.7388" x2="1029.7388" y1="1541.8667" y2="1561.8667"/><polygon fill="#E7E7E7" points="1025.7388,1551.8667,1029.7388,1561.8667,1033.7388,1551.8667,1029.7388,1555.8667" style="stroke:#E7E7E7;stroke-width:1;"/><line style="stroke:#E7E7E7;stroke-width:1;" x1="1029.7388" x2="1029.7388" y1="1734.8589" y2="1754.8589"/><polygon fill="#E7E7E7" points="1025.7388,1744.8589,1029.7388,1754.8589,1033.7388,1744.8589,1029.7388,1748.8589" style="stroke:#E7E7E7;stroke-width:1;"/><line style="stroke:#E7E7E7;stroke-width:1;" x1="1029.7388" x2="1029.7388" y1="1788.8276" y2="1808.8276"/><polygon fill="#E7E7E7" points="1025.7388,1798.8276,1029.7388,1808.8276,1033.7388,1798.8276,1029.7388,1802.8276" style="stroke:#E7E7E7;stroke-width:1;"/><line style="stroke:#E7E7E7;stroke-width:1;" x1="1029.7388" x2="1029.7388" y1="1856.7651" y2="1876.7651"/><polygon fill="#E7E7E7" points="1025.7388,1866.7651,1029.7388,1876.7651,1033.7388,1866.7651,1029.7388,1870.7651" style="stroke:#E7E7E7;stroke-width:1;"/><line style="stroke:#E7E7E7;stroke-width:1;" x1="143.5488" x2="143.5488" y1="284.7061" y2="289.7061"/><line style="stroke:#E7E7E7;stroke-width:1;" x1="143.5488" x2="517.6968" y1="289.7061" y2="289.7061"/><line style="stroke:#E7E7E7;stroke-width:1;" x1="517.6968" x2="517.6968" y1="289.7061" y2="304.7061"/><polygon fill="#E7E7E7" points="513.6968,294.7061,517.6968,304.7061,521.6968,294.7061,517.6968,298.7061" style="stroke:#E7E7E7;stroke-width:1;"/><line style="stroke:#E7E7E7;stroke-width:1;" x1="517.6968" x2="517.6968" y1="338.6748" y2="343.6748"/><line style="stroke:#E7E7E7;stroke-width:1;" x1="517.6968" x2="1029.7388" y1="343.6748" y2="343.6748"/><line style="stroke:#E7E7E7;stroke-width:1;" x1="1029.7388" x2="1029.7388" y1="343.6748" y2="358.6748"/><polygon fill="#E7E7E7" points="1025.7388,348.6748,1029.7388,358.6748,1033.7388,348.6748,1029.7388,352.6748" style="stroke:#E7E7E7;stroke-width:1;"/><line style="stroke:#E7E7E7;stroke-width:1;" x1="1029.7388" x2="1029.7388" y1="679.5933" y2="684.5933"/><line style="stroke:#E7E7E7;stroke-width:1;" x1="1029.7388" x2="517.6968" y1="684.5933" y2="684.5933"/><line style="stroke:#E7E7E7;stroke-width:1;" x1="517.6968" x2="517.6968" y1="684.5933" y2="699.5933"/><polygon fill="#E7E7E7" points="513.6968,689.5933,517.6968,699.5933,521.6968,689.5933,517.6968,693.5933" style="stroke:#E7E7E7;stroke-width:1;"/><line style="stroke:#E7E7E7;stroke-width:1;" x1="517.6968" x2="517.6968" y1="1029.7769" y2="1034.7769"/><line style="stroke:#E7E7E7;stroke-width:1;" x1="517.6968" x2="1029.7388" y1="1034.7769" y2="1034.7769"/><line style="stroke:#E7E7E7;stroke-width:1;" x1="1029.7388" x2="1029.7388" y1="1034.7769" y2="1049.7769"/><polygon fill="#E7E7E7" points="1025.7388,1039.7769,1029.7388,1049.7769,1033.7388,1039.7769,1029.7388,1043.7769" style="stroke:#E7E7E7;stroke-width:1;"/><line style="stroke:#E7E7E7;stroke-width:1;" x1="1029.7388" x2="1029.7388" y1="1151.6831" y2="1156.6831"/><line style="stroke:#E7E7E7;stroke-width:1;" x1="1029.7388" x2="517.6968" y1="1156.6831" y2="1156.6831"/><line style="stroke:#E7E7E7;stroke-width:1;" x1="517.6968" x2="517.6968" y1="1156.6831" y2="1171.6831"/><polygon fill="#E7E7E7" points="513.6968,1161.6831,517.6968,1171.6831,521.6968,1161.6831,517.6968,1165.6831" style="stroke:#E7E7E7;stroke-width:1;"/><line style="stroke:#E7E7E7;stroke-width:1;" x1="517.6968" x2="517.6968" y1="1219.6206" y2="1224.6206"/><line style="stroke:#E7E7E7;stroke-width:1;" x1="517.6968" x2="1029.7388" y1="1224.6206" y2="1224.6206"/><line style="stroke:#E7E7E7;stroke-width:1;" x1="1029.7388" x2="1029.7388" y1="1224.6206" y2="1239.6206"/><polygon fill="#E7E7E7" points="1025.7388,1229.6206,1029.7388,1239.6206,1033.7388,1229.6206,1029.7388,1233.6206" style="stroke:#E7E7E7;stroke-width:1;"/><line style="stroke:#E7E7E7;stroke-width:1;" x1="1029.7388" x2="1029.7388" y1="1609.8042" y2="1614.8042"/><line style="stroke:#E7E7E7;stroke-width:1;" x1="1029.7388" x2="517.6968" y1="1614.8042" y2="1614.8042"/><line style="stroke:#E7E7E7;stroke-width:1;" x1="517.6968" x2="517.6968" y1="1614.8042" y2="1629.8042"/><polygon fill="#E7E7E7" points="513.6968,1619.8042,517.6968,1629.8042,521.6968,1619.8042,517.6968,1623.8042" style="stroke:#E7E7E7;stroke-width:1;"/><line style="stroke:#E7E7E7;stroke-width:1;" x1="517.6968" x2="517.6968" y1="1663.7729" y2="1671.9214"/><line style="stroke:#E7E7E7;stroke-width:1;" x1="517.6968" x2="1029.7388" y1="1671.9214" y2="1671.9214"/><line style="stroke:#E7E7E7;stroke-width:1;" x1="1029.7388" x2="1029.7388" y1="1671.9214" y2="1686.9214"/><polygon fill="#E7E7E7" points="1025.7388,1676.9214,1029.7388,1686.9214,1033.7388,1676.9214,1029.7388,1680.9214" style="stroke:#E7E7E7;stroke-width:1;"/><text fill="#FFFFFF" font-family="sans-serif" font-size="18" lengthAdjust="spacing" textLength="204.8379" x="98.9934" y="34.4531">Administrador (Admin)</text><text fill="#FFFFFF" font-family="sans-serif" font-size="18" lengthAdjust="spacing" textLength="72.501" x="597.3379" y="34.4531">Sistema</text><text fill="#FFFFFF" font-family="sans-serif" font-size="18" lengthAdjust="spacing" textLength="114.2139" x="1052.842" y="34.4531">Usuario (HR)</text><?plantuml-src ZLN1Rjj65BppAnxIGoYY1PgaQ5hAS459bAqYiGNApacN9t95BKBkChkaqXJ-Ytv1ZptqKFG32bG_rbbIL2JBBUg3OMlVpiwRcVTatqjLiU6IIgrqkZ6w5BJcmWhF7eugJjzpBXRrfqAG4MdDAY-E2-o6C_rHgdn_rNk8ib8gQMk30qD---_WmRCrczfJkWQEp3TrI44mZHOnlGXfV7ipdLtT9z5ujllb9WYyC15v2s5GTMyRDbBR8A1CK99SNmzF2nOwbIBZJ5YQgLeOnQWTUbuOAIxapqoL4LjfvUvF1OI2UFU71iJO25oVHydTR1AHFpV2DbKZRAq93QIIYm507XPuHvJyu8LNu96vA-X4Pan2qMWqcRYYFKVohnFq-aINBqEAVup7zuSEPvbGjLpB581AfC82CNCDhhKfENLabqgJ5MOBBXhYVsY4aHcOUt9D_jz_nPOQnHIbRJ5DtRrQRfbK8xRymu3g3HZwYztl0uzetsvx1b9djvnY0WwIVwE_f4_exYVNEEcb0Wsk2Z0TU49bSksKjT0SS7fLo9nhRIINw4SGjvps2a7aYR1veIrAKwrIKK5S0NbhexCcbMQfP5bfWukTHpXs3bqn_ZeLVyn5sXJ0iLnag9Asqagk2X7IKits8BqpNz6YATblOIpD7RIsSDC9rzUsXtH92uTtfjP5gWjjmeyRMOlBjxgB6eEX9lngk0YNwgJcsL4gbCYTflhPa2ukllXkz3L-BYyFylOo7WBLKJd4wVJnoCfSeGZ1n4JrqNpyV10y7-koSaCC5levx7HllnXzCttz4cy_ZcYuW0qbPXXA57mMEZVhSYK8NlG91AyehPjsedhA9Ijyq3f_wjO9jp6NA_cv0twIkx9D-N-8Fp5Rhx11Pd6In6wHt4MZDt6tGj21D3Hbi3PCUjqAr-OBEcs5m7uw7IOaPVzvEoVdgVYyTVevwdTF42oLVoSh7T8ykNqNnvFRP30yi_nuSVN4y00SYAhgi9E2025jwiuGh3r_R9fK39m3-p1yQ7Q_KJywMMTX1xTKgJPOPPYEp8rZM_d4FFNPCnsVDdurhm0qUpk_lyCglhqP7gcDzcE4eRllZA-bK6r0kYZW70XxYnyvwfed1tKUmtVOQTqI11Aa17MtAHmJiLJEgqoubBRhHTDQAbQkh5tWMgqbSklaE9R0iTZzYk-kdDiTz5zXF6oRuop_MqJ1Ihhu7yNq-s-dhoOkfe2e_W40?></g></svg>